<svg width="150%" height="100%" viewBox="0 0 375 323" fill="none" xmlns="http://www.w3.org/2000/svg">
<path d="M141.41 103.776C145.803 108.097 152.722 105.858 146.707 99.9146C143.334 96.5841 136.443 98.8954 141.41 103.776Z" fill="#EBF2FF"/>
<path d="M167.81 103.647C170.107 104.652 172.26 98.4217 169.389 97.9049C166.245 97.3307 164.594 102.24 167.81 103.647Z" fill="#EBF2FF"/>
<path d="M158.464 116.625C158.952 116.61 159.354 116.567 159.57 116.51C161.364 115.993 162.068 113.897 159.67 113.796C158.593 113.753 155.938 113.811 155.421 115.103C154.918 116.366 157.014 116.653 158.464 116.625Z" fill="#EBF2FF"/>
<path d="M145.185 150.532C153.756 153.289 166.116 149.025 170.221 140.641C173.897 133.133 168.599 136.091 164.637 138.029C160.015 140.297 154.947 141.804 149.779 141.919C144.582 142.034 139.371 140.713 135.093 137.684C133.242 136.363 130.686 131.841 128.318 134.512C124.657 138.675 141.151 149.226 145.185 150.532Z" fill="#EBF2FF"/>
<path d="M80.327 174.664C91.3664 176.846 101.961 171.549 109.124 163.323C111.823 160.222 125.073 141.618 119.116 138.23C118.111 137.655 103.066 144.56 93.448 152.169C91.2659 153.892 76.0491 173.817 80.327 174.664Z" fill="#EBF2FF"/>
<path d="M96.5344 185.991C92.3426 188.79 97.9413 205.844 102.65 202.715C107.229 199.671 101.659 182.574 96.5344 185.991Z" fill="#EBF2FF"/>
<path d="M98.2714 231.44C97.2952 223.66 88.1364 235.488 86.2702 237.168C82.1358 240.901 72.6324 249.241 75.3169 255.859C78.2167 263.022 84.1886 255.945 86.3994 252.471C89.9165 246.973 99.1614 238.431 98.2714 231.44Z" fill="#EBF2FF"/>
<path d="M109.282 201.968C109.569 199.887 113.216 184.139 109.584 184.182C106.397 184.225 106.239 199.025 105.923 201.279C104.042 214.687 101.674 228.038 98.8313 241.274C98.0561 244.877 93.6346 256.146 96.032 258.457C98.9462 261.257 100.999 247.461 101.458 245.38C104.631 231.01 107.244 216.525 109.282 201.968Z" fill="#EBF2FF"/>
<path d="M125.935 253.189C121.671 251.983 107.244 246.901 104.401 251.926C101.415 257.194 110.99 262.491 114.465 264.314C118.8 266.583 125.016 268.334 129.61 265.549C136.716 261.271 131.935 254.868 125.935 253.189Z" fill="#EBF2FF"/>
<path d="M165.757 225.253C160.345 225.253 154.832 226.287 149.535 226.775C144.97 227.191 140.046 227.622 135.783 229.43C133.701 230.321 131.375 232 132.868 234.469C135.194 238.288 145.903 237.929 149.765 238.274C157.244 238.92 171.815 240.527 178.174 235.288C184.204 230.321 176.595 226.674 171.901 225.784C169.863 225.397 167.824 225.253 165.757 225.253Z" fill="#EBF2FF"/>
<path d="M211.766 240.269C196.018 231.785 201.919 213.639 202.507 199.198C202.679 194.934 202.565 180.966 197.181 179.2C191.654 177.377 195.789 192.336 195.86 194.92C196.119 203.303 194.655 211.63 193.578 219.898C192.745 226.344 190.276 236.005 193.908 242.006C196.822 246.815 207.517 251.595 213.102 252.04C223.179 252.873 216.489 242.824 211.766 240.269Z" fill="#EBF2FF"/>
<path d="M224.213 206.648C219.088 199.269 212.039 218.506 213.59 222.913C217.121 232.89 228.606 212.965 224.213 206.648Z" fill="#EBF2FF"/>
<path d="M270.61 192.996C263.504 186.952 256.943 180.248 251.101 172.97C248.919 170.257 244.684 161.356 241.798 159.935C238.64 158.385 238.812 160.28 239.616 162.907C241.813 170.085 250.785 178.238 255.809 183.636C258.924 186.967 262.14 190.469 265.715 193.297C266.432 193.857 268.241 196.197 269.404 195.925C270.481 195.666 271.988 194.173 270.61 192.996Z" fill="#EBF2FF"/>
<path d="M288.238 136.938C284.362 133.377 279.998 127.592 274.242 131.124C271.17 133.004 264.121 142.809 264.925 146.527C266.605 154.25 273.495 145.608 277.099 144.331C279.611 143.426 295.718 143.828 288.238 136.938Z" fill="#EBF2FF"/>
<path d="M310.418 123.372C309.298 119.209 300.886 115.476 297.139 117.529C291.368 120.673 298.402 124.477 299.622 127.98C300.541 130.636 297.412 140.053 302.738 139.421C306.011 139.034 311.207 126.329 310.418 123.372Z" fill="#EBF2FF"/>
<path d="M38.1791 210.883C37.9064 210.883 37.9064 211.314 38.1791 211.314C38.4662 211.314 38.4662 210.883 38.1791 210.883Z" fill="#EBF2FF"/>
<path d="M200.655 150.92C198.129 147.891 186.285 135.373 181.706 137.483C180.313 137.225 180.041 138.344 180.4 140.11C180.543 144.345 185.496 151.925 187.046 153.892C191.683 159.777 198.287 167.572 205.608 165.835C212.456 164.228 201.646 152.111 200.655 150.92Z" fill="#EBF2FF"/>
<path d="M269.404 91.1435C268.055 91.445 267.811 89.306 269.16 89.0045C272.562 88.2437 275.993 87.612 279.424 87.0522C291.397 85.0711 315.227 79.9031 315.27 79.8457C313.131 79.6016 262.571 71.0601 257.79 70.3853C259.125 72.4669 265.858 81.554 263.762 85.0567C262.14 89.4495 261.236 91.8325 260.073 95.3209C258.68 99.4984 268.844 95.3927 271.83 96.1392C271.845 96.1392 271.844 96.1392 271.859 96.1392C274.285 99.9721 276.754 103.762 279.697 107.236C280.171 107.782 281.018 107.652 281.52 107.236C291.411 99.0534 314.524 83.4489 316.634 82.1425C316.361 82.1856 281.563 88.4303 269.404 91.1435Z" fill="#CFF1FF"/>
<path d="M139.386 84.2671C149.435 81.1089 180.443 83.6929 172.188 66.4232C170.939 63.7961 163.13 57.0346 161.192 59.3602C161.321 59.2167 161.651 62.2026 161.536 62.6046C160.388 66.2796 157.89 67.3993 154.143 68.0884C147.109 69.3948 139.17 67.3563 133.069 72.0793C129.782 74.6202 123.107 86.3343 125.892 91.1434C127.255 93.4977 130.256 90.9281 131.849 91.9473C133.945 93.2968 132.725 94.9764 133.859 96.1248C135.251 97.546 135.467 98.7232 136.615 95.7803C139.142 89.2916 136.558 85.1572 139.386 84.2671Z" fill="#CFF1FF"/>
<path d="M133.184 92.866C131.16 91.5883 128.375 91.6888 126.437 93.0956C124.513 94.5025 123.566 97.1296 124.169 99.4408C124.585 101.049 125.662 102.427 126.983 103.432C128.432 104.523 130.198 105.197 132.007 105.341" stroke="#003188" stroke-width="1.14844" stroke-miterlimit="10" stroke-linecap="round" stroke-linejoin="round"/>
<path d="M128.045 96.8999C128.992 97.4311 129.954 97.9622 130.902 98.4934" stroke="#003188" stroke-width="1.14844" stroke-miterlimit="10" stroke-linecap="round" stroke-linejoin="round"/>
<path d="M150.597 96.0098C150.511 96.9286 150.569 97.8617 150.77 98.7661C151.186 97.8617 151.172 96.7563 150.727 95.8662" stroke="#003188" stroke-width="1.14844" stroke-miterlimit="10" stroke-linecap="round" stroke-linejoin="round"/>
<path d="M146.104 91.2438C148.401 90.1241 150.956 89.5355 153.512 89.5211" stroke="#003188" stroke-width="1.14844" stroke-miterlimit="10" stroke-linecap="round" stroke-linejoin="round"/>
<path d="M166.202 87.8415C164.207 87.7841 162.197 88.3296 160.517 89.3919C160.273 89.5355 160.043 89.7078 159.9 89.9518C159.728 90.2533 159.713 90.6122 159.699 90.9567C159.67 92.1051 159.642 93.2679 159.871 94.3877C160.316 96.6989 161.766 98.7087 162.398 100.977C162.498 101.35 162.584 101.766 162.441 102.125C162.326 102.441 162.053 102.671 161.795 102.886C160.948 103.618 160.087 104.365 159.24 105.097" stroke="#003188" stroke-width="1.14844" stroke-miterlimit="10" stroke-linecap="round" stroke-linejoin="round"/>
<path d="M164.178 95.0911C164.12 95.895 164.149 96.7133 164.293 97.5028C164.551 96.6272 164.551 95.6653 164.278 94.7896" stroke="#003188" stroke-width="1.14844" stroke-miterlimit="10" stroke-linecap="round" stroke-linejoin="round"/>
<path d="M154 109.088C156.325 109.806 158.852 109.935 161.235 109.432" stroke="#003188" stroke-width="1.14844" stroke-miterlimit="10" stroke-linecap="round" stroke-linejoin="round"/>
<path d="M169.418 80.8504C169.705 87.899 170.006 94.9476 170.293 101.996C170.437 105.499 170.58 109.059 169.834 112.49C169.087 115.921 167.35 119.28 164.436 121.247C161.292 123.372 157.158 123.601 153.483 122.654C149.808 121.706 146.492 119.711 143.334 117.615" stroke="#003188" stroke-width="1.14844" stroke-miterlimit="10" stroke-linecap="round" stroke-linejoin="round"/>
<path d="M166.532 119.955C166.274 124.908 166.475 129.889 167.149 134.799" stroke="#003188" stroke-width="1.14844" stroke-miterlimit="10" stroke-linecap="round" stroke-linejoin="round"/>
<path d="M131.576 106.978C132.452 115.749 132.797 124.577 132.61 133.392" stroke="#003188" stroke-width="1.14844" stroke-miterlimit="10" stroke-linecap="round" stroke-linejoin="round"/>
<path d="M144.08 118.562C145.86 121.477 148.013 124.262 150.928 126.056C153.827 127.85 157.603 128.511 160.704 127.075C161.723 126.601 162.642 125.927 163.546 125.238C164.336 124.649 165.125 124.017 165.642 123.185C166.159 122.352 166.345 121.233 165.857 120.386C163.144 123.142 158.981 124.175 155.148 123.644C151.315 123.127 147.784 121.233 144.712 118.864" fill="#003188"/>
<path d="M144.08 118.562C145.86 121.477 148.013 124.262 150.928 126.056C153.827 127.85 157.603 128.511 160.704 127.075C161.723 126.601 162.642 125.927 163.546 125.238C164.336 124.649 165.125 124.017 165.642 123.185C166.159 122.352 166.345 121.233 165.857 120.386C163.144 123.142 158.981 124.175 155.148 123.644C151.315 123.127 147.784 121.233 144.712 118.864" stroke="#003188" stroke-width="1.14844" stroke-miterlimit="10" stroke-linecap="round" stroke-linejoin="round"/>
<path d="M130.629 133.507C122.59 137.239 113.761 139.737 105.435 144.029C94.0653 149.901 85.3515 160.079 79.3078 171.362C73.2641 182.646 69.6608 195.049 66.4883 207.452C61.6074 226.444 57.6165 245.652 53.6113 264.846" stroke="#003188" stroke-width="1.14844" stroke-miterlimit="10" stroke-linecap="round" stroke-linejoin="round"/>
<path d="M97.3096 187.871C99.5491 191.862 101.272 196.14 102.435 200.576" stroke="#003188" stroke-width="1.14844" stroke-miterlimit="10" stroke-linecap="round" stroke-linejoin="round"/>
<path d="M108.105 186.536C103.827 209.964 99.4199 233.364 94.9123 256.749" stroke="#003188" stroke-width="1.14844" stroke-miterlimit="10" stroke-linecap="round" stroke-linejoin="round"/>
<path d="M94.7974 232.158C90.5913 240.915 80.5854 246.155 77.4703 255.371" stroke="#003188" stroke-width="1.14844" stroke-miterlimit="10" stroke-linecap="round" stroke-linejoin="round"/>
<path d="M86.299 247.518C84.8922 249.787 83.7437 252.213 82.8824 254.739" stroke="#003188" stroke-width="1.14844" stroke-miterlimit="10" stroke-linecap="round" stroke-linejoin="round"/>
<path d="M132.624 135.545C137.807 138.675 143.578 141.029 149.621 141.546C155.665 142.063 161.996 140.613 166.733 136.851" stroke="#003188" stroke-width="1.14844" stroke-miterlimit="10" stroke-linecap="round" stroke-linejoin="round"/>
<path d="M137.922 141.488C143.75 146.254 152.062 147.819 159.211 145.479" stroke="#003188" stroke-width="1.14844" stroke-miterlimit="10" stroke-linecap="round" stroke-linejoin="round"/>
<path d="M195.717 179.545C199.234 207.639 190.348 235.603 186.745 263.683" stroke="#003188" stroke-width="1.14844" stroke-miterlimit="10" stroke-linecap="round" stroke-linejoin="round"/>
<path d="M136.414 231.756C148.487 228.885 160.962 227.751 173.351 228.397" stroke="#003188" stroke-width="1.14844" stroke-miterlimit="10" stroke-linecap="round" stroke-linejoin="round"/>
<path d="M146.262 235.431C151.114 234.455 156.196 234.656 160.962 236.005" stroke="#003188" stroke-width="1.14844" stroke-miterlimit="10" stroke-linecap="round" stroke-linejoin="round"/>
<path d="M106.784 252.371C114.981 252.758 123.48 253.232 130.744 257.05C131.002 257.18 131.289 257.366 131.304 257.653C131.332 257.998 130.988 258.228 130.686 258.386C126.207 260.697 121.111 261.472 116.115 262.204C118.455 263.453 120.939 264.386 123.523 264.989" stroke="#003188" stroke-width="1.14844" stroke-miterlimit="10" stroke-linecap="round" stroke-linejoin="round"/>
<path d="M169.561 134.971C184.075 135.875 197.109 145.235 205.306 157.236C213.489 169.252 217.394 183.665 219.691 198.02" stroke="#003188" stroke-width="1.14844" stroke-miterlimit="10" stroke-linecap="round" stroke-linejoin="round"/>
<path d="M207.56 221.075C218.801 203.619 230.041 186.177 241.296 168.721" stroke="#003188" stroke-width="1.14844" stroke-miterlimit="10" stroke-linecap="round" stroke-linejoin="round"/>
<path d="M242.372 159.835C250.598 170.874 259.513 181.397 269.074 191.302" stroke="#003188" stroke-width="1.14844" stroke-miterlimit="10" stroke-linecap="round" stroke-linejoin="round"/>
<path d="M239.946 165.979C246.78 176.961 255.092 187.01 264.595 195.795" stroke="#003188" stroke-width="1.14844" stroke-miterlimit="10" stroke-linecap="round" stroke-linejoin="round"/>
<path d="M260.719 193.872C254.489 209.074 248.215 224.363 239.53 238.316C236.458 243.255 232.855 248.222 227.615 250.763C222.102 253.433 215.485 253.002 209.714 250.935C203.943 248.882 198.832 245.336 193.808 241.848" stroke="#003188" stroke-width="1.14844" stroke-miterlimit="10" stroke-linecap="round" stroke-linejoin="round"/>
<path d="M218.772 208.572C215.743 213.295 214.092 218.879 214.063 224.492" stroke="#003188" stroke-width="1.14844" stroke-miterlimit="10" stroke-linecap="round" stroke-linejoin="round"/>
<path d="M103.583 147.79C101.645 148.953 99.8936 150.446 98.4294 152.169" stroke="#003188" stroke-width="1.14844" stroke-miterlimit="10" stroke-linecap="round" stroke-linejoin="round"/>
<path d="M247.038 161.902C249.148 159.404 251.373 157.007 253.699 154.724" stroke="#003188" stroke-width="1.14844" stroke-miterlimit="10" stroke-linecap="round" stroke-linejoin="round"/>
<path d="M254.603 154.896C251.201 146.958 253.254 136.995 259.527 131.066C261.078 129.602 262.829 128.382 264.581 127.176C268.313 124.577 272.045 121.993 275.778 119.395C276.711 118.749 278.046 118.103 278.893 118.864C279.309 119.237 279.439 119.854 279.439 120.414C279.439 121.749 278.836 122.998 278.19 124.161C275.921 128.195 272.821 131.77 269.146 134.583" stroke="#003188" stroke-width="1.14844" stroke-miterlimit="10" stroke-linecap="round" stroke-linejoin="round"/>
<path d="M268.069 138.976C268.83 137.54 269.318 135.961 269.49 134.339" stroke="#003188" stroke-width="1.14844" stroke-miterlimit="10" stroke-linecap="round" stroke-linejoin="round"/>
<path d="M275.563 130.248C282.568 125.511 290.004 121.39 297.742 117.974C298.603 117.586 299.508 117.213 300.455 117.17C301.403 117.127 302.422 117.486 302.91 118.304C303.613 119.452 302.982 120.96 302.149 122.022C300.771 123.774 298.862 125.022 296.981 126.243C292.918 128.884 288.856 131.526 284.793 134.167" stroke="#003188" stroke-width="1.14844" stroke-miterlimit="10" stroke-linecap="round" stroke-linejoin="round"/>
<path d="M307.848 120.285C308.81 120.113 309.758 120.831 310.088 121.749C310.418 122.668 310.188 123.702 309.714 124.549C309.255 125.396 308.566 126.099 307.891 126.803C307.705 126.989 307.518 127.219 307.532 127.492C307.547 127.707 307.719 127.879 307.863 128.052C308.509 128.87 308.523 130.076 308.135 131.037C307.748 132.014 307.016 132.803 306.255 133.521" stroke="#003188" stroke-width="1.14844" stroke-miterlimit="10" stroke-linecap="round" stroke-linejoin="round"/>
<path d="M305.236 127.707C299.938 131.942 294.469 135.976 288.87 139.794" stroke="#003188" stroke-width="1.14844" stroke-miterlimit="10" stroke-linecap="round" stroke-linejoin="round"/>
<path d="M291.526 143.268C295.029 140.9 298.589 138.646 302.206 136.478" stroke="#003188" stroke-width="1.14844" stroke-miterlimit="10" stroke-linecap="round" stroke-linejoin="round"/>
<path d="M304.79 136.823C305.092 138.273 304.231 139.708 303.226 140.814C300.699 143.599 297.196 145.278 294.139 147.475C290.176 150.303 286.932 154.006 283.329 157.294C279.726 160.567 275.548 163.51 270.739 164.299" stroke="#003188" stroke-width="1.14844" stroke-miterlimit="10" stroke-linecap="round" stroke-linejoin="round"/>
<path d="M274.96 165.979C271.888 172.468 268.586 178.827 265.026 185.057" stroke="#003188" stroke-width="1.14844" stroke-miterlimit="10" stroke-linecap="round" stroke-linejoin="round"/>
<path d="M267.854 149.556C271.227 146.671 275.505 144.862 279.927 144.431" stroke="#003188" stroke-width="1.14844" stroke-miterlimit="10" stroke-linecap="round" stroke-linejoin="round"/>
<path d="M282.525 132.559C285.985 136.119 288.985 140.139 291.425 144.474" stroke="#003188" stroke-width="1.14844" stroke-miterlimit="10" stroke-linecap="round" stroke-linejoin="round"/>
<path d="M93.4767 132.717C93.2758 132.975 93.4911 133.435 93.8213 133.449C94.1514 133.478 94.4098 133.062 94.2519 132.774" stroke="#003188" stroke-width="1.14844" stroke-miterlimit="10" stroke-linecap="round" stroke-linejoin="round"/>
<path d="M178.017 128.425C177.787 128.568 177.902 129.013 178.174 129.013C178.447 129.013 178.562 128.568 178.332 128.425" stroke="#003188" stroke-width="1.14844" stroke-miterlimit="10" stroke-linecap="round" stroke-linejoin="round"/>
<path d="M229.036 147.159C228.663 146.929 228.117 147.36 228.232 147.776C228.362 148.192 229.051 148.235 229.237 147.848" stroke="#003188" stroke-width="1.14844" stroke-miterlimit="10" stroke-linecap="round" stroke-linejoin="round"/>
<path d="M201.359 257.84C200.957 257.926 201.531 258.587 201.818 258.285C202.105 257.984 201.919 257.495 201.732 257.122" stroke="#003188" stroke-width="1.14844" stroke-miterlimit="10" stroke-linecap="round" stroke-linejoin="round"/>
<path d="M283.027 181.713C282.597 181.885 283.444 182.488 283.472 182.028" stroke="#003188" stroke-width="1.14844" stroke-miterlimit="10" stroke-linecap="round" stroke-linejoin="round"/>
<path d="M194.655 175.095C194.54 175.511 194.64 175.97 194.927 176.301" stroke="#003188" stroke-width="1.14844" stroke-miterlimit="10" stroke-linecap="round" stroke-linejoin="round"/>
<path d="M161.709 144.862C162.01 144.661 162.312 144.46 162.613 144.259" stroke="#003188" stroke-width="1.14844" stroke-miterlimit="10" stroke-linecap="round" stroke-linejoin="round"/>
<path d="M176.079 228.383C176.28 228.383 176.481 228.383 176.682 228.383" stroke="#003188" stroke-width="1.14844" stroke-miterlimit="10" stroke-linecap="round" stroke-linejoin="round"/>
<path d="M95.8597 185.517C95.8597 185.402 95.8597 185.287 95.8597 185.187" stroke="#003188" stroke-width="1.14844" stroke-miterlimit="10" stroke-linecap="round" stroke-linejoin="round"/>
<path d="M64.3063 237.211C63.9761 238.116 63.6603 239.006 63.3301 239.91" stroke="#003188" stroke-width="1.14844" stroke-miterlimit="10" stroke-linecap="round" stroke-linejoin="round"/>
<path d="M134.089 94.7755C134.074 95.8665 134.261 96.9431 134.62 97.9767C134.663 98.0916 134.72 98.2351 134.835 98.2639C134.993 98.3213 135.151 98.1777 135.266 98.0342C136.357 96.5986 136.644 94.7037 136.787 92.9092C137.017 90.196 137.017 87.4685 136.816 84.7553" stroke="#24BDFF" stroke-width="1.14844" stroke-miterlimit="10" stroke-linecap="round" stroke-linejoin="round"/>
<path d="M125.346 91.4737C124.628 86.5784 125.088 81.4535 127.112 76.9459C129.136 72.4382 132.797 68.5766 137.39 66.7534C140.491 65.5188 143.893 65.2317 147.224 65.3035C151.861 65.404 156.986 66.0356 160.675 63.222" stroke="#24BDFF" stroke-width="1.14844" stroke-miterlimit="10" stroke-linecap="round" stroke-linejoin="round"/>
<path d="M139.343 84.3103C145.674 81.9847 152.607 82.3005 159.297 81.4535C162.269 81.0803 165.255 80.4486 167.839 78.9269C170.423 77.4196 172.547 74.893 172.963 71.9358C173.423 68.7345 171.815 65.5188 169.518 63.2363C167.221 60.9538 164.278 59.4608 161.407 57.9965" stroke="#24BDFF" stroke-width="1.14844" stroke-miterlimit="10" stroke-linecap="round" stroke-linejoin="round"/>
<path d="M161.063 58.097C161.709 58.8579 161.953 59.9346 161.709 60.8964" stroke="#24BDFF" stroke-width="1.14844" stroke-miterlimit="10" stroke-linecap="round" stroke-linejoin="round"/>
<path d="M156.727 68.031C156.383 69.9116 155.105 71.4907 153.655 72.7397C148.889 76.8453 142.329 77.9507 136.256 79.6016" stroke="#24BDFF" stroke-width="1.14844" stroke-miterlimit="10" stroke-linecap="round" stroke-linejoin="round"/>
<path d="M161.781 66.8539C161.953 67.787 161.436 68.6914 160.89 69.4666C158.378 73.0268 154.775 75.7974 150.684 77.3048" stroke="#24BDFF" stroke-width="1.14844" stroke-miterlimit="10" stroke-linecap="round" stroke-linejoin="round"/>
<path d="M165.255 68.9068C164.393 70.773 163.001 72.3952 161.292 73.5436" stroke="#24BDFF" stroke-width="1.14844" stroke-miterlimit="10" stroke-linecap="round" stroke-linejoin="round"/>
<path d="M133.026 84.7122C133.586 86.0473 133.715 87.5546 133.371 88.9615" stroke="#24BDFF" stroke-width="1.14844" stroke-miterlimit="10" stroke-linecap="round" stroke-linejoin="round"/>
<path d="M211.106 117.328C217.38 118.046 223.782 117.701 229.955 116.294C236.286 114.859 242.674 112.074 246.493 106.82C247.167 105.887 247.785 104.767 247.569 103.633C247.21 101.724 244.842 100.991 242.889 101.006C241.468 101.02 240.004 101.236 238.812 101.996C237.621 102.757 236.76 104.178 236.989 105.585C237.334 107.638 239.688 108.7 241.77 108.887C247.124 109.375 252.264 106.518 256.326 102.987" stroke="#24BDFF" stroke-width="1.14844" stroke-miterlimit="10" stroke-linecap="round" stroke-linejoin="round"/>
<path d="M225.074 119.295C218.485 121.807 211.393 122.984 204.359 122.711" stroke="#24BDFF" stroke-width="1.14844" stroke-miterlimit="10" stroke-linecap="round" stroke-linejoin="round"/>
<path d="M268.083 88.9759L321.055 78.927L279.424 108.212L271.859 95.3784L268.083 88.9759ZM268.083 88.9759L259.614 97.4456L271.816 95.4359" stroke="#24BDFF" stroke-width="1.14844" stroke-miterlimit="10" stroke-linecap="round" stroke-linejoin="round"/>
<path d="M259.614 97.4457L264.638 82.0852L321.055 78.927L255.738 67.0119L264.638 82.0852" stroke="#24BDFF" stroke-width="1.14844" stroke-miterlimit="10" stroke-linecap="round" stroke-linejoin="round"/>
</svg>
