<svg width="150%" height="100%" viewBox="0 0 375 322" fill="none"
    xmlns="http://www.w3.org/2000/svg">
    <path d="M185.449 184.427C183.359 181.708 176.332 175.926 173.871 181.923C172.84 184.427 175.66 187.132 177.148 188.95C178.823 190.996 184.046 197.45 187.438 196.148C192.747 194.102 187.352 186.903 185.449 184.427Z" fill="#EBF2FF"/>
    <path d="M244.754 246.552C239.516 243.575 215.759 246.237 221.212 253.936C224.232 258.201 232.203 257.743 236.325 256.14C237.355 255.739 248.589 248.741 244.754 246.552Z" fill="#EBF2FF"/>
    <path d="M255.759 216.298C265.576 210.388 228.41 200.341 232.031 208.055C232.675 209.429 238.042 210.259 239.087 210.617C242.65 211.847 252.396 218.33 255.759 216.298Z" fill="#EBF2FF"/>
    <path d="M295.687 169.386C300.123 169.372 305.676 173.551 310.198 171.59C315.465 169.315 311 165.68 307.179 163.962C301.984 161.63 296.102 163.49 290.678 163.419C285.984 163.361 279.959 162.102 275.322 161.343C271.945 160.785 270.228 158.767 266.893 158.911C261.87 159.139 259.509 162.474 265.505 164.02C268.109 164.692 270.972 163.662 273.562 164.406C276.095 165.136 277.684 167.025 279.959 168.256C285.784 171.39 289.633 169.415 295.687 169.386Z" fill="#EBF2FF"/>
    <path d="M301.755 200.356C310.814 203.06 301.898 167.869 294.027 173.866C291.408 175.855 295.301 179.49 296.059 181.279C297.92 185.715 295.658 198.524 301.755 200.356Z" fill="#EBF2FF"/>
    <path d="M269.77 195.118C265.519 195.132 259.308 200.27 265.276 200.985C269.14 201.458 274.907 195.089 269.77 195.118ZM265.333 200.842C265.305 200.856 265.305 200.871 265.29 200.871C265.29 200.885 265.29 200.871 265.333 200.842Z" fill="#EBF2FF"/>
    <path d="M264.732 242.616C254.786 228.634 247.859 240.899 254.557 252.391C256.832 256.283 262.814 263.954 268.038 259.89C273.262 255.811 267.394 246.351 264.732 242.616Z" fill="#EBF2FF"/>
    <path d="M310.156 224.112C310.156 229.922 303.916 234.03 300.538 237.779C298.363 240.212 295.759 251.99 299.909 253.793C304.789 255.911 310.213 242.545 310.971 239.783C311.959 236.205 312.388 232.455 312.603 228.749C312.646 227.919 313.218 224.742 312.732 224.112C312.388 223.683 310.156 221.536 310.156 224.112Z" fill="#EBF2FF"/>
    <path d="M324.81 211.361C323.98 207.11 320.86 203.275 319.544 199.11C318.07 194.445 317.569 189.493 315.866 184.899C314.249 180.563 307.594 172.191 309.168 181.064C310.971 191.268 315.465 200.713 315.851 211.232C315.966 214.266 313.633 221.264 317.054 221.879C321.762 222.724 325.469 214.695 324.81 211.361Z" fill="#EBF2FF"/>
    <path d="M150.93 85.7092C155.867 88.0419 147.653 91.4194 145.878 92.4784C143.288 94.0097 137.878 99.2475 134.701 98.532C131.939 97.9023 133.141 97.2583 132.583 94.9685C132.34 94.0097 131.896 90.99 131.796 90.1743C131.682 89.1296 129.764 88.9578 130.708 87.5554C131.238 86.7682 134 87.9847 134.658 87.9131C137.02 87.6269 140.139 86.3389 142.544 85.7235C119.947 85.7235 97.3349 85.7235 74.7377 85.7235C71.7181 85.7235 55.203 83.5339 53.0564 85.7951C50.9097 88.0562 53.0564 102.94 53.0564 105.888C53.0564 133.895 53.0564 161.902 53.0564 189.908C53.0564 194.989 53.0564 200.055 53.0564 205.135C53.0564 206.381 52.2549 211.375 53.0564 212.348C54.0152 213.507 59.3533 212.72 61.042 212.72C67.9972 212.72 74.9524 212.72 81.9076 212.72C84.4836 212.72 87.6463 213.236 90.1794 212.72C93.6427 212.019 96.6623 209.357 100.34 208.37C106.179 206.796 114.179 208.856 119.489 206.753C121.12 206.109 120.576 204.749 122.723 204.406C124.555 204.105 126.673 205.994 128.519 205.293C130.379 204.577 130.236 202.273 131.853 201.558C134.057 200.57 135.789 201.772 137.936 202.545C144.175 204.778 149.728 208.041 156.225 205.98C160.433 204.635 164.125 204.076 168.79 203.347C175.574 202.288 181.57 206.753 187.953 205.508C183.774 199.769 178.293 195.103 174.243 189.279C172.941 187.404 169.849 183.282 169.306 181.193C168.662 178.703 170.594 176.528 170.322 174.452C169.978 171.934 166.3 168.714 165.012 166.023C163.61 163.118 163.166 160.17 162.751 157.007C162.35 153.945 162.365 150.353 160.261 147.862C157.585 144.685 154.436 145.959 151.087 144.156C145.649 141.222 145.735 133.981 147.61 128.857C150.315 121.487 154.551 121 161.191 122.818C162.866 123.276 174.801 124.593 175.731 120.957C176.833 116.621 168.862 118.653 168.347 115.362C164.01 116.221 162.264 112.814 157.799 114.374C155.324 115.247 150.372 120.442 152.275 115.076C153.406 111.884 158.815 108.092 161.563 106.904C163.052 106.26 166.515 106.289 167.402 105.058C168.576 103.441 166 101.623 165.985 99.9345C161.105 105.816 161.277 96.7431 168.06 93.9667C173.513 91.7342 172.125 96.786 174.715 97.2869C177.706 97.8737 184.089 92.9793 186.965 93.5946C194.98 95.312 194.536 89.1296 199.345 89.1153C200.375 89.1153 200.804 90.4319 201.133 90.4891C202.15 90.7038 205.241 91.2762 207.058 91.4194C212.482 91.8487 217.935 91.9918 223.33 92.5213C229.441 93.1224 242.865 91.0186 241.29 101.366C240.89 103.97 238.972 107.333 236.324 105.401C234.936 104.385 236.095 101.48 234.736 100.908C233.62 100.435 228.024 102.868 227.537 103.97C226.164 107.047 227.566 104.213 228.868 106.203C229.584 107.305 231.344 107.376 232.189 109.222C232.847 110.668 232.689 112.514 232.389 114.031C231.53 118.296 228.496 120.528 224.647 117.509C223.187 118.167 226.435 124.936 226.407 126.553C226.292 131.762 222.586 130.145 221.083 133.523C220.253 135.397 222.071 138.188 221.083 140.163C221.999 138.331 217.334 142.367 218.593 142.095C216.904 142.453 217.205 143.497 215.158 141.866C212.611 139.82 215.072 133.308 211.294 131.805C207.759 130.389 207.445 135.913 206.514 138.059C202.464 147.347 201.506 137.687 199.931 133.236C198.286 128.571 196.94 129.573 192.59 127.541C190.515 126.582 186.436 122.517 185.792 127.068C185.534 128.9 192.633 133.651 193.878 136.041C195.781 139.691 196.468 144.929 194.665 148.692C192.962 152.256 189.141 153.172 186.808 156.005C184.375 158.953 185.033 160.385 184.361 164.249C183.817 167.397 182.329 170.774 182.744 174.023C183.087 176.599 185.434 182.195 187.38 183.483C191.259 180.95 185.763 171.118 187.037 167.712C188.525 163.705 189.627 166.367 190.6 169.1C192.075 173.25 192.733 178.417 193.463 182.739C194.865 191.025 195.495 199.697 204.425 202.617C207.373 203.576 211.294 204.978 214.572 205.894C220.11 207.454 226.121 206.152 231.473 208.656C234.335 196.377 237.627 183.425 245.212 173.107C248.847 168.156 253.426 163.977 259.022 161.358C263.516 159.254 263.601 159.039 263.272 153.73C263.058 150.367 262.786 143.555 260.639 142.109C258.635 140.764 255.816 142.181 253.841 139.834C252.238 137.93 252.653 135.34 252.339 133.108C252.167 131.92 253.026 130.26 252.439 129.143C251.866 128.056 250.192 128.213 249.763 126.768C248.875 123.734 249.691 125.079 251.165 122.188C253.813 117.008 253.698 110.897 255.244 105.387C255.859 103.212 256.517 100.621 257.805 98.7466C259.58 96.1563 261.512 97.0866 263.244 95.269C264.417 94.0383 266.049 87.5983 264.532 86.1242C263.974 85.5661 263.401 86.1242 262.428 85.7665C258.135 84.2066 250.321 85.7665 245.798 85.7665C227.18 85.7665 208.561 85.7665 189.942 85.7665C176.933 85.7092 163.939 85.7092 150.93 85.7092ZM131.954 161.014C129.735 166.81 125.442 171.418 122.709 176.943C121.32 179.748 120.834 181.694 120.777 184.713C120.748 186.216 121.85 188.792 121.177 190.252C117.013 199.354 113.292 175.998 113.106 174.152C112.419 167.025 109.914 163.347 107.21 157.179C105.278 152.771 107.954 148.292 105.778 144.428C104.591 142.31 100.712 140.664 98.4369 138.317C94.3439 134.109 92.369 129.587 90.2366 124.206C89.7357 126.94 87.5891 125.551 86.7447 123.977C85.6857 121.974 87.1454 119.283 87.632 117.394C88.7483 113.001 90.0506 105.845 85.3565 102.654C82.7233 100.865 78.2296 104.543 76.7413 102.453C75.625 100.893 81.9219 95.4265 83.1669 94.7682C86.7877 92.8218 92.7697 94.0097 96.6766 94.0526C102.916 94.1242 108.312 94.1814 114.322 92.693C117.514 91.9059 121.707 90.575 121.134 93.9954C120.963 94.9685 117.542 97.5588 116.812 98.4175C116.083 99.2762 111.832 103.584 112.562 105.144C113.936 108.035 117.456 102.281 118.415 101.781C121.549 100.135 124.397 100.75 126.086 104.156C128.147 108.321 125.971 109.437 122.837 111.14C117.671 113.945 114.637 116.407 110.687 120.857C109.285 122.432 107.711 124.664 105.55 125.194C104.605 125.423 101.743 124.364 101.242 124.564C99.4959 125.265 99.0237 126.324 98.6802 128.199C97.9789 132.077 98.6945 129.802 100.612 131.519C104.233 134.768 106.709 135.626 106.179 141.794C113.249 138.131 115.653 139.619 120.362 145.63C125.056 151.612 136.161 150.009 131.954 161.014ZM228.282 156.349C228.382 153.63 233.09 154.975 231.401 157.136C230.543 158.238 227.952 158.181 228.282 156.349ZM223.044 147.905C223.673 144.728 229.584 143.397 228.038 146.331C231.015 151.698 221.77 154.345 223.044 147.905ZM220.525 155.562C220.196 152.7 227.609 153.329 227.094 155.877C226.693 157.866 220.725 157.279 220.525 155.562ZM248.389 162.717C248.203 166.782 245.069 169.93 242.049 172.32C236.825 176.442 234.407 175.411 228.568 176.313C227.752 176.442 222.972 179.375 222.7 179.275C220.31 178.474 222.457 176.914 222.5 175.697C222.629 172.42 223.659 169.987 226.307 167.039C228.525 164.563 231.43 162.474 233.72 161.301C235.122 160.585 238.385 159.583 239.502 158.538C242.464 155.762 239.559 155.19 240.818 152.556C244.281 145.272 248.546 159.469 248.389 162.717Z" fill="#EBF2FF"/>
    <path d="M318.785 154.016C318.327 143.569 308.266 139.805 302.356 132.85C295.3 124.507 297.29 112.485 290.163 103.899C284.31 96.8433 274.936 92.0347 265.82 95.3406C256.703 98.6608 254.814 103.713 262.7 109.58C269.168 114.389 271.186 122.417 269.812 130.632C268.353 139.319 262.285 149.68 270.256 157.336C277.14 163.948 290.191 161.744 298.621 161.859C300.653 161.887 304.245 161.615 306.234 162.088C307.522 162.402 309.955 164.792 311.229 164.792C316.152 164.764 318.971 158.166 318.785 154.016Z" fill="#FFE2DB"/>
    <path d="M46.5592 79.0546L47.9903 216.298" stroke="#003188" stroke-width="1.00178" stroke-miterlimit="10" stroke-linecap="round" stroke-linejoin="round"/>
    <path d="M46.5592 79.0546H264.804" stroke="#003188" stroke-width="1.00178" stroke-miterlimit="10" stroke-linecap="round" stroke-linejoin="round"/>
    <path d="M47.9902 216.298H191.101" stroke="#003188" stroke-width="1.00178" stroke-miterlimit="10" stroke-linecap="round" stroke-linejoin="round"/>
    <path d="M265.233 81.2012V90.9328" stroke="#003188" stroke-width="1.00178" stroke-miterlimit="10" stroke-linecap="round" stroke-linejoin="round"/>
    <path d="M220.153 216.298H226.45" stroke="#003188" stroke-width="1.00178" stroke-miterlimit="10" stroke-linecap="round" stroke-linejoin="round"/>
    <path d="M96.6481 221.736H150.029" stroke="#003188" stroke-width="1.00178" stroke-miterlimit="10" stroke-linecap="round" stroke-linejoin="round"/>
    <path d="M136.29 228.606H145.592" stroke="#003188" stroke-width="1.00178" stroke-miterlimit="10" stroke-linecap="round" stroke-linejoin="round"/>
    <path d="M171.066 225.743H173.499" stroke="#003188" stroke-width="1.00178" stroke-miterlimit="10" stroke-linecap="round" stroke-linejoin="round"/>
    <path d="M86.2009 72.0421H96.648" stroke="#003188" stroke-width="1.00178" stroke-miterlimit="10" stroke-linecap="round" stroke-linejoin="round"/>
    <path d="M184.661 72.0421H203.552" stroke="#003188" stroke-width="1.00178" stroke-miterlimit="10" stroke-linecap="round" stroke-linejoin="round"/>
    <path d="M210.994 72.0421H213.999" stroke="#003188" stroke-width="1.00178" stroke-miterlimit="10" stroke-linecap="round" stroke-linejoin="round"/>
    <path d="M255.945 101.137C254.328 106.36 252.696 111.856 253.741 117.222" stroke="#003188" stroke-width="1.00178" stroke-miterlimit="10" stroke-linecap="round" stroke-linejoin="round"/>
    <path d="M253.741 117.094C252.153 119.526 250.564 121.959 248.976 124.392C248.818 124.621 248.661 124.879 248.675 125.165C248.675 125.48 248.89 125.737 249.09 125.981C249.791 126.796 251.323 127.383 252.153 128.07" stroke="#003188" stroke-width="1.00178" stroke-miterlimit="10" stroke-linecap="round" stroke-linejoin="round"/>
    <path d="M252.138 128.07C252.153 130.417 252.167 134.424 252.339 136.771C252.41 137.802 252.51 138.861 253.054 139.748C253.841 141.036 255.416 141.623 256.89 141.895C259.423 142.367 262.07 142.195 264.517 141.38" stroke="#003188" stroke-width="1.00178" stroke-miterlimit="10" stroke-linecap="round" stroke-linejoin="round"/>
    <path d="M252.353 132.578C253.77 132.578 255.172 131.963 256.145 130.918" stroke="#003188" stroke-width="1.00178" stroke-miterlimit="10" stroke-linecap="round" stroke-linejoin="round"/>
    <path d="M256.646 117.881C256.503 118.496 256.432 119.126 256.432 119.755C256.575 119.24 256.66 118.696 256.703 118.167" stroke="#003188" stroke-width="1.00178" stroke-miterlimit="10" stroke-linecap="round" stroke-linejoin="round"/>
    <path d="M255.201 113.974C256.961 113.688 258.793 113.831 260.496 114.36" stroke="#003188" stroke-width="1.00178" stroke-miterlimit="10" stroke-linecap="round" stroke-linejoin="round"/>
    <path d="M261.326 142.381C263.143 147.562 263.773 153.143 263.129 158.596" stroke="#003188" stroke-width="1.00178" stroke-miterlimit="10" stroke-linecap="round" stroke-linejoin="round"/>
    <path d="M268.639 158.181C257.591 159.025 248.117 167.054 242.564 176.656C237.011 186.259 233.147 197.322 230.929 208.184C239.745 210.889 249.748 214.896 257.405 220.048" stroke="#003188" stroke-width="1.00178" stroke-miterlimit="10" stroke-linecap="round" stroke-linejoin="round"/>
    <path d="M235.938 204.878C243.48 205.078 250.965 207.282 257.419 211.175" stroke="#003188" stroke-width="1.00178" stroke-miterlimit="10" stroke-linecap="round" stroke-linejoin="round"/>
    <path d="M265.548 194.645C262.256 196.334 260.954 200.284 259.952 203.833C257.834 211.347 255.73 218.874 253.612 226.387C251.28 234.688 248.832 243.217 243.58 250.044C241.434 252.834 238.729 255.353 235.351 256.341C231.044 257.6 226.378 256.14 222.5 253.908C213.584 248.77 207.573 239.883 202.207 231.11C197.083 222.738 192.261 214.18 187.438 205.622" stroke="#003188" stroke-width="1.00178" stroke-miterlimit="10" stroke-linecap="round" stroke-linejoin="round"/>
    <path d="M196.597 194.989C204.182 204.592 212.897 213.279 222.514 220.849C224.675 222.552 226.922 224.227 228.625 226.373C229.555 227.532 230.156 229.536 228.868 230.266C227.924 230.795 226.679 230.037 226.307 229.021C225.935 228.005 226.178 226.888 226.435 225.844C227.738 220.592 229.355 215.411 231.301 210.359" stroke="#003188" stroke-width="1.00178" stroke-miterlimit="10" stroke-linecap="round" stroke-linejoin="round"/>
    <path d="M264.303 200.026C265.762 199.397 267.237 198.753 268.696 198.123" stroke="#003188" stroke-width="1.00178" stroke-miterlimit="10" stroke-linecap="round" stroke-linejoin="round"/>
    <path d="M295.172 174.753C298.363 182.367 300.324 190.481 300.953 198.71" stroke="#003188" stroke-width="1.00178" stroke-miterlimit="10" stroke-linecap="round" stroke-linejoin="round"/>
    <path d="M301.14 184.828C303.086 187.934 304.159 191.583 304.188 195.232" stroke="#003188" stroke-width="1.00178" stroke-miterlimit="10" stroke-linecap="round" stroke-linejoin="round"/>
    <path d="M308.667 176.957C318.341 200.742 311.801 227.99 316.782 253.178" stroke="#003188" stroke-width="1.00178" stroke-miterlimit="10" stroke-linecap="round" stroke-linejoin="round"/>
    <path d="M311.587 226.13C309.469 230.896 306.377 235.232 302.571 238.81C300.939 240.341 299.079 241.886 298.592 244.062C298.535 244.319 298.506 244.591 298.621 244.82C298.735 245.035 298.964 245.178 299.193 245.264C300.309 245.665 301.526 245.078 302.556 244.462C305.433 242.717 308.08 240.584 310.384 238.123C307.508 242.187 304.617 246.251 301.741 250.316" stroke="#003188" stroke-width="1.00178" stroke-miterlimit="10" stroke-linecap="round" stroke-linejoin="round"/>
    <path d="M254.886 237.078C258.435 243.675 262.643 249.915 267.408 255.697" stroke="#003188" stroke-width="1.00178" stroke-miterlimit="10" stroke-linecap="round" stroke-linejoin="round"/>
    <path d="M258.034 249.343C259.852 252.019 261.669 254.695 263.473 257.357" stroke="#003188" stroke-width="1.00178" stroke-miterlimit="10" stroke-linecap="round" stroke-linejoin="round"/>
    <path d="M312.145 167.197C316.796 172.12 319.358 178.617 321.461 185.057C324.824 195.39 327.257 206.023 328.703 216.799C324.324 217.744 320.087 219.432 316.238 221.736" stroke="#003188" stroke-width="1.00178" stroke-miterlimit="10" stroke-linecap="round" stroke-linejoin="round"/>
    <path d="M316.209 216.327C320.159 214.08 324.395 212.348 328.774 211.189" stroke="#003188" stroke-width="1.00178" stroke-miterlimit="10" stroke-linecap="round" stroke-linejoin="round"/>
    <path d="M324.18 221.35C325.597 228.72 326.284 236.219 326.255 243.718" stroke="#003188" stroke-width="1.00178" stroke-miterlimit="10" stroke-linecap="round" stroke-linejoin="round"/>
    <path d="M326.599 247.181C326.599 247.496 326.599 247.811 326.599 248.126" stroke="#003188" stroke-width="1.00178" stroke-miterlimit="10" stroke-linecap="round" stroke-linejoin="round"/>
    <path d="M185.491 203.103C182.844 199.11 179.838 195.347 176.533 191.883C174.4 189.636 172.11 187.49 170.551 184.814C168.991 182.137 168.261 178.774 169.477 175.926" stroke="#003188" stroke-width="1.00178" stroke-miterlimit="10" stroke-linecap="round" stroke-linejoin="round"/>
    <path d="M171.781 181.265C170.636 179.733 171.023 177.572 171.552 175.74C171.996 174.252 172.497 172.778 173.069 171.318" stroke="#003188" stroke-width="1.00178" stroke-miterlimit="10" stroke-linecap="round" stroke-linejoin="round"/>
    <path d="M176.261 169.358C175.359 171.891 174.973 174.61 175.13 177.3" stroke="#003188" stroke-width="1.00178" stroke-miterlimit="10" stroke-linecap="round" stroke-linejoin="round"/>
    <path d="M178.136 176.141C177.148 170.045 179.209 163.519 183.545 159.097C183.788 158.839 184.146 158.567 184.475 158.71C184.762 158.825 184.862 159.197 184.876 159.512C185.048 162.116 183.259 164.42 182.758 166.982C182.357 169 182.758 171.118 182.329 173.136C182.257 173.494 182.157 173.851 182.2 174.209C182.243 174.596 182.443 174.939 182.629 175.268C184.06 177.844 186.579 180.678 186.965 183.597" stroke="#003188" stroke-width="1.00178" stroke-miterlimit="10" stroke-linecap="round" stroke-linejoin="round"/>
    <path d="M188.11 184.427C187.423 181.737 187.323 178.903 187.81 176.17" stroke="#003188" stroke-width="1.00178" stroke-miterlimit="10" stroke-linecap="round" stroke-linejoin="round"/>
    <path d="M187.81 175.998C187.266 173.909 186.965 171.762 186.923 169.615C186.894 168.141 187.094 166.438 188.311 165.608C188.497 165.479 188.726 165.379 188.955 165.394C189.413 165.451 189.642 165.966 189.785 166.41C190.629 169.129 191.473 171.848 192.318 174.567C194.193 180.606 196.082 186.932 194.98 193.171" stroke="#003188" stroke-width="1.00178" stroke-miterlimit="10" stroke-linecap="round" stroke-linejoin="round"/>
    <path d="M189.484 174.381C189.799 174.381 190.128 174.381 190.443 174.381" stroke="#003188" stroke-width="1.00178" stroke-miterlimit="10" stroke-linecap="round" stroke-linejoin="round"/>
    <path d="M103.832 95.0973C101.7 93.2655 99.2383 93.3657 96.7338 93.8523C94.3725 94.3102 92.0541 93.8523 89.6928 93.7378C87.7894 93.6519 86.2009 93.7235 84.3977 94.3388C82.9809 94.8254 82.7948 95.312 81.8073 96.1277C81.0918 96.7145 80.1186 96.8147 79.4746 97.473C78.8593 98.0883 78.2582 99.2619 77.5856 100.02C77.1419 100.521 75.7537 101.909 76.5838 102.682C77.3423 103.398 78.802 101.895 79.5462 101.609C80.9201 101.079 84.9844 100.378 86.1007 101.48C86.7304 102.095 86.7447 103.14 87.1168 103.884C87.7894 105.23 88.4048 105.373 88.1901 107.076C88.0327 108.349 87.6749 109.294 87.9182 110.582C88.2187 112.17 88.5765 112.829 87.7035 114.36C86.9021 115.763 85.9003 116.95 86.2438 118.725C86.5014 120.056 86.9021 120.428 86.7161 121.859C86.4441 124.006 86.6731 124.263 87.6463 125.966C88.1758 126.868 88.2903 128.957 89.335 129.229C89.8645 128.127 88.8627 126.539 89.4209 125.566C90.165 124.292 90.6659 125.766 90.9521 126.782C91.4101 128.371 91.1668 130.245 91.8967 131.748C92.4691 132.907 93.6283 133.966 94.3868 135.011C95.0451 135.913 95.36 136.256 96.3904 136.485C97.2061 136.671 97.7642 136.027 98.4941 136.843C98.9807 137.387 98.8662 138.517 99.2812 139.147C99.7535 139.848 100.555 140.406 101.342 140.578C101.228 140.006 101.07 139.405 101.07 138.832C102.301 139.49 101.957 141.48 103.088 142.195C104.118 142.853 105.249 141.637 105.907 143.326" stroke="#003188" stroke-width="1.00178" stroke-miterlimit="10" stroke-linecap="round" stroke-linejoin="round"/>
    <path d="M99.1382 125.594C98.1507 126.897 94.988 132.693 97.9217 133.194C99.4817 133.465 100.798 130.46 102.201 131.133C103.245 131.634 102.53 133.408 102.63 134.238C102.788 135.555 103.288 135.798 104.161 136.585C105.177 137.501 105.063 137.143 105.106 138.589C105.135 139.505 104.777 140.464 105.979 140.75" stroke="#003188" stroke-width="1.00178" stroke-miterlimit="10" stroke-linecap="round" stroke-linejoin="round"/>
    <path d="M107.324 141.365C107.582 141.337 107.796 141.437 107.925 141.666" stroke="#003188" stroke-width="1.00178" stroke-miterlimit="10" stroke-linecap="round" stroke-linejoin="round"/>
    <path d="M100.197 124.836C100.784 124.278 102.244 123.605 103.074 123.949C104.104 124.378 103.66 125.337 104.29 125.952C105.621 127.226 106.251 125.466 106.952 124.55C108.011 123.161 109.943 123.104 110.687 121.473C111.059 120.671 110.973 119.741 111.346 118.925C111.761 117.995 112.605 116.965 113.206 116.149C114.179 114.847 116.111 112.6 117.943 112.757C118.787 112.829 118.859 113.559 120.061 113.315C120.905 113.158 121.664 112.857 121.793 112.027C121.907 111.298 121.005 110.897 121.363 109.981C121.592 109.394 122.952 108.564 123.596 108.736C124.426 108.965 124.183 110.01 124.798 110.253C125.871 110.682 126.759 109.337 126.787 108.435C126.816 107.634 126.301 107.076 126.086 106.332C125.828 105.416 126.2 104.7 126.057 103.899C125.685 101.752 123.381 103.097 122.437 101.638C121.95 100.879 122.608 100.02 121.506 99.8058C120.548 99.6197 119.818 101.094 119.345 101.623C117.914 103.226 116.455 103.67 115.467 105.545C115.138 106.174 115.567 106.632 114.637 106.689C113.922 106.732 112.82 105.316 112.476 104.815C110.916 102.582 111.975 101.065 113.85 99.6197C115.138 98.6179 117.614 98.3889 118.143 97.2727C118.444 96.6287 117.857 96.0562 118.544 95.2834C119.159 94.5822 119.889 94.8112 120.605 94.5106C122.093 93.881 123.138 92.5214 121.292 91.6198C119.145 90.5608 118.301 92.4498 116.827 93.4802C114.88 94.8255 112.705 93.6806 110.544 94.4677C108.87 95.0831 107.582 95.9131 105.807 95.1117" stroke="#003188" stroke-width="1.00178" stroke-miterlimit="10" stroke-linecap="round" stroke-linejoin="round"/>
    <path d="M105.349 91.1475C103.446 90.7468 103.918 92.8362 105.464 93.0938C106.451 93.2512 108.011 92.4069 109.013 92.2208C110.086 92.0205 113.091 91.0903 110.501 90.432C109.142 90.0885 107.782 91.1046 106.394 91.0044" stroke="#003188" stroke-width="1.00178" stroke-miterlimit="10" stroke-linecap="round" stroke-linejoin="round"/>
    <path d="M115.51 88.7289C114.909 88.5286 114.179 88.7862 113.893 89.4588C114.079 89.6162 114.208 89.5733 114.451 89.6449" stroke="#003188" stroke-width="1.00178" stroke-miterlimit="10" stroke-linecap="round" stroke-linejoin="round"/>
    <path d="M115.51 91.4623C115.41 91.5338 115.353 91.634 115.353 91.7628" stroke="#003188" stroke-width="1.00178" stroke-miterlimit="10" stroke-linecap="round" stroke-linejoin="round"/>
    <path d="M118.859 88.8721C119.002 88.6431 119.217 88.5429 119.46 88.5715" stroke="#003188" stroke-width="1.00178" stroke-miterlimit="10" stroke-linecap="round" stroke-linejoin="round"/>
    <path d="M125.828 86.9114C125.184 86.9973 124.04 87.6413 124.626 88.3425C125.299 89.1296 127.932 87.5697 128.676 87.3694C130.236 86.94 133.528 87.3264 134.329 85.7665C133.399 85.3086 132.011 85.4374 131.138 86.0098" stroke="#003188" stroke-width="1.00178" stroke-miterlimit="10" stroke-linecap="round" stroke-linejoin="round"/>
    <path d="M131.596 89.33C134.844 87.9847 132.383 96.142 132.526 97.2154C132.784 99.1188 134.358 100.063 135.889 98.8898C137.249 97.8594 137.377 95.8415 139.109 95.1546C140.698 94.5106 142.043 95.1403 143.574 94.0097C144.189 93.5517 144.676 92.7217 145.349 92.3496C146.021 91.9775 146.88 92.1779 147.567 91.8487C149.241 91.0187 148.211 90.2029 149.084 88.8863C149.771 87.8416 151.231 88.1707 152.204 87.6699" stroke="#003188" stroke-width="1.00178" stroke-miterlimit="10" stroke-linecap="round" stroke-linejoin="round"/>
    <path d="M134.329 88.1136C138.193 88.3998 139.324 83.8345 143.131 85.466C145.993 86.6824 148.368 85.4088 151.317 85.8381" stroke="#003188" stroke-width="1.00178" stroke-miterlimit="10" stroke-linecap="round" stroke-linejoin="round"/>
    <path d="M109.757 140.306C110.086 139.734 110.587 139.233 111.26 139.261C111.346 139.82 111.346 140.349 111.303 140.907C113.12 140.678 113.535 140.592 115.224 141.551C116.698 142.396 118.229 143.14 119.66 143.641C120.619 143.984 120.505 143.369 120.991 144.471C121.306 145.186 120.719 146.217 121.277 146.961C121.821 147.676 124.369 148.807 125.227 148.936C126.458 149.107 126.959 148.506 127.675 149.723C128.276 150.753 127.417 151.025 128.691 151.397C129.621 151.669 130.651 150.853 131.696 151.326C133.013 151.898 132.412 152.113 132.712 153.086C133.327 155.104 133.628 155.59 132.34 157.909C130.98 160.356 131.224 163.705 129.649 165.923C129.106 166.681 128.175 167.111 127.589 167.841C126.744 168.928 126.358 170.13 125.972 171.404C125.37 173.308 124.798 175.454 123.295 176.613C122.794 177 122.394 176.542 122.05 177.329C121.75 177.973 122.494 178.66 122.351 179.261C121.979 180.878 119.746 180.807 119.446 182.61C119.288 183.526 119.718 183.841 119.875 184.699C120.09 185.873 119.589 186.517 119.374 187.604C119.188 188.506 120.805 192.012 120.233 192.327C119.417 192.785 117.771 190.667 117.499 190.137C116.784 188.735 117.127 187.103 116.641 185.644C116.254 184.485 115.453 184.055 114.795 183.082C113.736 181.536 113.807 179.59 113.678 177.801C113.335 172.935 112.39 167.984 111.517 163.19C111.274 161.887 111.045 160.599 109.972 159.698C109.17 159.025 108.254 159.054 107.739 158.052C107.067 156.764 107.911 155.075 107.324 153.773C106.952 152.943 105.965 152.642 105.621 151.827C104.505 149.165 108.168 147.133 107.51 144.242" stroke="#003188" stroke-width="1.00178" stroke-miterlimit="10" stroke-linecap="round" stroke-linejoin="round"/>
    <path d="M108.383 147.433C107.682 148.292 107.238 149.823 107.467 150.925" stroke="#003188" stroke-width="1.00178" stroke-miterlimit="10" stroke-linecap="round" stroke-linejoin="round"/>
    <path d="M173.527 97.2582C172.54 96.1849 173.313 94.854 172.597 93.8522C171.452 92.2494 169.849 93.981 168.576 93.9667C167.202 93.9524 166.701 93.108 165.241 94.1957C164.211 94.9685 162.007 97.1294 161.449 98.2886C160.833 99.5623 161.806 99.9201 162.379 101.079C162.708 101.723 162.078 101.766 162.751 102.353C163.094 102.654 163.924 102.782 164.368 102.625C165.871 102.038 164.812 100.521 165.084 99.4049C165.37 98.1742 166.744 97.4586 167.717 96.8719C168.633 98.489 166.386 100.192 166.772 101.852C167.073 103.126 168.747 104.256 166.729 105.072C166.1 105.33 165.198 105.158 164.497 105.315C163.452 105.559 163.753 105.73 162.679 105.473C161.692 105.244 161.377 104.657 160.247 105.416C159.359 106.017 159.159 107.104 158.272 107.72C157.556 108.221 154.365 109.122 154.021 109.895C153.649 110.725 154.722 110.811 154.994 111.526C155.467 112.714 154.866 113.33 153.807 113.831C152.948 114.231 152.561 113.873 151.774 114.102C150.987 114.331 149.499 115.72 150.114 116.764C150.486 117.394 151.646 117.222 152.29 117.609C153.263 118.181 152.719 118.739 154.036 118.267C155.338 117.795 155.667 116.178 156.654 115.39C157.427 114.775 158.071 115.119 158.873 114.703C159.774 114.217 159.617 112.958 160.833 113.716C161.563 114.174 160.805 115.29 162.307 115.147" stroke="#003188" stroke-width="1.00178" stroke-miterlimit="10" stroke-linecap="round" stroke-linejoin="round"/>
    <path d="M163.939 115.72C164.382 115.891 164.511 116.278 164.368 116.736" stroke="#003188" stroke-width="1.00178" stroke-miterlimit="10" stroke-linecap="round" stroke-linejoin="round"/>
    <path d="M165.828 113.688C166.773 114.346 167.86 114.789 167.574 116.163" stroke="#003188" stroke-width="1.00178" stroke-miterlimit="10" stroke-linecap="round" stroke-linejoin="round"/>
    <path d="M165.828 116.45C165.828 116.65 165.828 116.836 165.828 117.036" stroke="#003188" stroke-width="1.00178" stroke-miterlimit="10" stroke-linecap="round" stroke-linejoin="round"/>
    <path d="M168.733 117.466C168.59 118.11 168.776 118.653 169.32 118.911C169.749 118.396 169.72 116.006 170.78 116.135C171.91 116.263 171.452 118.653 172.983 118.94C174.329 119.197 175.101 117.952 176.017 119.526C177.134 121.444 174.901 122.746 173.241 122.961C171.681 123.161 169.778 121.587 168.318 122.245C166.858 122.904 167.016 124.464 164.955 123.548C163.438 122.875 162.408 121.101 160.733 120.686C159.273 120.328 158.343 121.802 157.098 121.516C156.669 121.415 156.425 120.7 155.982 120.528C155.567 120.371 155.137 120.614 154.737 120.585C153.248 120.457 152.504 120.199 151.574 121.616C151.13 122.303 151.045 123.033 150.501 123.705C149.842 124.521 148.941 124.864 148.497 125.909C148.011 127.054 148.24 128.428 147.81 129.601C147.381 130.775 146.465 131.648 145.964 132.807C144.833 135.44 146.479 137.172 146.794 139.719C147.023 141.623 146.909 144.041 149.37 144.657C150.944 145.057 151.316 143.283 152.59 143.469C153.392 143.598 153.463 144.785 154.078 145.057C155.238 145.573 155.166 144.657 155.91 144.113C158.071 142.524 157.585 145.229 158.544 146.546C158.987 147.161 159.645 147.104 160.189 147.519C161.12 148.249 161.334 149.022 161.721 150.152C162.279 151.841 163.681 153.544 163.323 155.39C163.052 156.821 162.279 157.937 162.322 159.454" stroke="#003188" stroke-width="1.00178" stroke-miterlimit="10" stroke-linecap="round" stroke-linejoin="round"/>
    <path d="M162.622 162.374C162.622 163.419 162.45 164.521 162.937 165.465C163.509 166.581 164.74 167.311 165.399 168.442C166.171 169.744 166.558 169.687 167.574 170.46C168.046 170.817 168.418 170.989 168.59 171.662" stroke="#003188" stroke-width="1.00178" stroke-miterlimit="10" stroke-linecap="round" stroke-linejoin="round"/>
    <path d="M191.702 132.149C191.803 130.045 190.529 131.39 189.513 130.56C188.912 130.059 189.413 129.215 189.055 128.757C188.411 127.97 188.354 128.657 187.466 128.657C186.622 128.657 185.978 128.829 185.32 128.084C184.976 127.684 184.332 125.737 184.733 125.251C185.592 124.235 187.137 126.381 188.053 126.897" stroke="#003188" stroke-width="1.00178" stroke-miterlimit="10" stroke-linecap="round" stroke-linejoin="round"/>
    <path d="M190.829 127.927C191.13 128.242 191.545 128.328 191.989 128.213" stroke="#003188" stroke-width="1.00178" stroke-miterlimit="10" stroke-linecap="round" stroke-linejoin="round"/>
    <path d="M195.037 128.07C195.881 127.941 195.981 128.757 196.339 129.373" stroke="#003188" stroke-width="1.00178" stroke-miterlimit="10" stroke-linecap="round" stroke-linejoin="round"/>
    <path d="M197.942 131.419C198.572 132.306 199.159 130.99 199.946 131.834C200.804 132.764 200.733 135.884 201.148 137.086C201.391 137.816 201.792 138.56 201.849 139.347C201.906 140.092 201.506 140.764 201.892 141.494C202.779 143.168 203.938 142.453 204.339 141.022C204.811 139.347 204.525 137.487 205.813 136.113C206.371 135.526 207.187 135.34 207.659 134.61C208.175 133.809 208.046 132.779 208.475 131.948C209.205 130.532 211.194 130.145 212.382 131.462C213.284 132.464 212.411 132.807 212.783 133.895" stroke="#003188" stroke-width="1.00178" stroke-miterlimit="10" stroke-linecap="round" stroke-linejoin="round"/>
    <path d="M212.911 135.054C212.926 135.283 213.083 135.383 213.341 135.34" stroke="#003188" stroke-width="1.00178" stroke-miterlimit="10" stroke-linecap="round" stroke-linejoin="round"/>
    <path d="M215.53 136.657C216.003 138.446 214.815 140.049 215.745 141.952C216.518 143.555 217.706 143.841 217.276 141.594C217.105 140.736 216.246 139.905 217.119 139.247C217.92 138.66 218.135 139.276 218.579 139.691C219.208 140.292 218.679 140.993 219.867 141.151C220.854 141.279 221.555 140.306 221.756 139.448C222.314 137 219.237 135.727 219.294 133.38C219.323 132.378 219.881 131.362 221.054 131.848C221.784 132.149 221.741 133.58 222.385 133.737C223.96 134.124 224.346 129.845 224.976 129.015C226.435 127.111 227.852 127.398 226.85 124.693C226.421 123.534 226.378 123.004 226.407 121.816C226.45 120.228 226.636 121.229 225.434 120.342C224.432 119.598 224.976 119.569 224.532 118.496C224.303 117.952 223.559 117.666 223.659 117.323" stroke="#003188" stroke-width="1.00178" stroke-miterlimit="10" stroke-linecap="round" stroke-linejoin="round"/>
    <path d="M206.085 142.324C206.801 142.825 206.056 143.998 205.498 144.499" stroke="#003188" stroke-width="1.00178" stroke-miterlimit="10" stroke-linecap="round" stroke-linejoin="round"/>
    <path d="M174.4 111.655C172.926 110.439 172.311 113.172 172.74 113.902C173.27 114.804 174.815 114.546 175.674 114.847C176.203 115.033 177.491 116.078 178.078 115.777C179.051 115.305 177.878 114.36 177.663 113.831C177.477 113.387 177.263 113.115 177.277 112.629C177.277 112.256 177.878 111.798 177.778 111.469C177.348 109.952 175.846 113.387 174.386 112.671" stroke="#003188" stroke-width="1.00178" stroke-miterlimit="10" stroke-linecap="round" stroke-linejoin="round"/>
    <path d="M224.833 116.593C225.219 115.591 228.367 118.725 229.054 119.068" stroke="#003188" stroke-width="1.00178" stroke-miterlimit="10" stroke-linecap="round" stroke-linejoin="round"/>
    <path d="M229.77 117.179C229.727 115.577 228.725 115.734 230.028 114.561C230.514 114.131 231.287 113.917 231.587 113.101C231.945 112.113 231.358 111.298 231.401 110.324C231.487 108.063 232.46 106.718 229.512 106.646C228.367 106.618 227.738 106.99 227.18 105.688C226.493 104.099 227.623 103.298 228.553 102.511C228.926 102.196 229.384 101.437 229.799 101.194C231.015 100.507 231.459 101.838 232.403 101.909C233.548 102.01 236.138 97.4874 236.425 100.621C236.525 101.738 234.536 103.069 235.008 104.171C235.337 104.958 237.112 105.101 237.756 105.773C238.285 106.346 238.213 107.319 239.086 107.448C240.289 107.634 240.346 106.632 240.16 105.859C239.845 104.586 238.185 103.784 238.886 102.239C239.373 101.137 240.661 101.509 241.204 100.679C241.777 99.8201 238.772 96.7146 240.99 97.1296" stroke="#003188" stroke-width="1.00178" stroke-miterlimit="10" stroke-linecap="round" stroke-linejoin="round"/>
    <path d="M174.987 97.8451C176.003 97.6591 176.189 96.8291 176.876 96.2423C177.949 95.3264 177.477 95.7986 178.651 95.8273C180.296 95.8416 181.527 95.6269 183.13 95.0974C184.389 94.6824 185.735 94.1529 186.951 93.652C187.552 93.4087 187.967 92.3783 188.525 93.3085C188.711 93.5947 188.325 94.3962 188.225 94.6681C189.227 95.1117 191.058 94.1529 191.602 93.1797C192.332 91.8488 190.629 91.6198 191.259 90.6753C192.303 89.101 196.024 90.8041 197.441 90.5179C198.815 90.2459 201.663 88.1565 202.436 90.4749C201.978 90.7182 201.663 91.1332 201.591 91.6055C202.679 92.4355 204.611 91.4194 205.828 91.2048C207.559 90.8899 208.461 91.3193 210.035 91.7629C211.581 92.1923 212.997 92.4785 214.529 92.9221C214.815 93.008 216.475 93.5089 216.718 93.3085C217.262 92.8935 216.675 92.0778 216.99 91.6914C217.949 90.4606 219.795 92.1922 220.854 92.779C222.858 93.8953 223.287 92.5214 225.205 92.55C226.636 92.5787 227.623 94.0098 229.126 94.2387C230.156 94.3962 231.029 94.3532 232.117 94.6681" stroke="#003188" stroke-width="1.00178" stroke-miterlimit="10" stroke-linecap="round" stroke-linejoin="round"/>
    <path d="M235.151 94.9399C236.081 94.8397 237.083 93.7664 237.77 94.7968" stroke="#003188" stroke-width="1.00178" stroke-miterlimit="10" stroke-linecap="round" stroke-linejoin="round"/>
    <path d="M182.543 90.2888C181.47 90.2316 178.98 91.219 179.924 92.6215" stroke="#003188" stroke-width="1.00178" stroke-miterlimit="10" stroke-linecap="round" stroke-linejoin="round"/>
    <path d="M222.757 147.977C223.487 148.149 222.972 148.793 223.172 149.336C223.401 149.952 223.702 149.895 224.16 150.295C224.718 150.768 225.262 151.197 225.376 151.998C225.491 152.013 225.577 151.984 225.663 151.898" stroke="#003188" stroke-width="1.00178" stroke-miterlimit="10" stroke-linecap="round" stroke-linejoin="round"/>
    <path d="M224.174 146.875C225.319 147.047 225.477 144.299 226.693 145.358" stroke="#003188" stroke-width="1.00178" stroke-miterlimit="10" stroke-linecap="round" stroke-linejoin="round"/>
    <path d="M228.496 146.073C228.525 147.39 228.224 147.862 227.38 148.821C226.75 149.537 226.478 149.952 226.979 150.911" stroke="#003188" stroke-width="1.00178" stroke-miterlimit="10" stroke-linecap="round" stroke-linejoin="round"/>
    <path d="M221.441 154.431C222.028 155.004 223.244 155.061 224.017 155.333C224.761 155.619 225.677 155.59 226.378 155.934" stroke="#003188" stroke-width="1.00178" stroke-miterlimit="10" stroke-linecap="round" stroke-linejoin="round"/>
    <path d="M223.459 153.53C223.673 153.673 223.917 153.773 224.16 153.83" stroke="#003188" stroke-width="1.00178" stroke-miterlimit="10" stroke-linecap="round" stroke-linejoin="round"/>
    <path d="M229.312 149.494C229.326 149.666 229.298 149.837 229.212 149.995" stroke="#003188" stroke-width="1.00178" stroke-miterlimit="10" stroke-linecap="round" stroke-linejoin="round"/>
    <path d="M221.756 150.295C221.77 150.567 221.842 150.839 221.956 151.097" stroke="#003188" stroke-width="1.00178" stroke-miterlimit="10" stroke-linecap="round" stroke-linejoin="round"/>
    <path d="M229.312 155.948C229.985 155.791 230.886 155.404 231.53 155.648" stroke="#003188" stroke-width="1.00178" stroke-miterlimit="10" stroke-linecap="round" stroke-linejoin="round"/>
    <path d="M230.314 156.95C230.5 156.864 230.714 156.793 230.915 156.75" stroke="#003188" stroke-width="1.00178" stroke-miterlimit="10" stroke-linecap="round" stroke-linejoin="round"/>
    <path d="M239.888 151.011C239.387 150.796 238.786 150.911 238.357 151.24C238.915 152.098 240.761 151.669 241.448 152.728C241.892 153.415 241.834 154.632 241.29 155.247" stroke="#003188" stroke-width="1.00178" stroke-miterlimit="10" stroke-linecap="round" stroke-linejoin="round"/>
    <path d="M241.691 150.195C242.378 150.195 243.394 150.295 243.909 150.811C244.482 151.383 244.353 152.299 244.797 152.929C245.498 153.902 246.872 153.73 247.53 154.732" stroke="#003188" stroke-width="1.00178" stroke-miterlimit="10" stroke-linecap="round" stroke-linejoin="round"/>
    <path d="M239.172 159.669C237.899 157.895 236.267 159.955 235.523 160.986C235.194 161.444 234.65 162.317 233.934 162.102C233.448 161.945 233.677 161.558 233.333 161.286C231.587 159.812 230.357 163.104 229.684 164.292C228.425 166.524 225.92 166.138 224.303 167.984C222.5 170.045 225.147 171.805 223.731 173.995C223.015 175.097 221.813 175.669 221.641 177.143C221.527 178.088 221.913 179.161 223.044 178.732C224.761 178.073 224.904 174.939 227.48 175.683C228.511 175.984 228.854 176.427 230.07 176.385C230.986 176.356 231.931 176.17 232.818 176.413" stroke="#003188" stroke-width="1.00178" stroke-miterlimit="10" stroke-linecap="round" stroke-linejoin="round"/>
    <path d="M90.9666 212.205C93.7858 208.899 98.394 209.014 102.272 208.284C104.734 207.826 106.795 206.796 109.256 206.223C112.19 205.536 123.295 208.584 120.49 203.003C123.167 202.13 125.843 205.865 128.333 204.864C130.837 203.862 129.192 201.114 131.023 200.127C134.086 198.467 135.717 202.116 137.75 203.518C140.869 205.665 144.547 205.565 148.025 206.295C150.901 206.896 151.989 208.055 155.166 206.567C158.358 205.078 158.93 203.661 162.565 203.49C163.553 203.447 164.526 204.763 165.728 204.763C167.216 204.763 169.506 202.96 171.123 202.617C173.155 202.187 176.332 201.515 177.191 203.504" stroke="#003188" stroke-width="1.00178" stroke-miterlimit="10" stroke-linecap="round" stroke-linejoin="round"/>
    <path d="M205.77 201.787C208.189 201.515 208.632 202.517 210.25 203.719C211.208 204.434 210.736 205.178 212.282 205.708C213.827 206.223 215.788 205.178 217.448 205.694C219.695 206.395 218.579 207.196 221.827 207.296C223.602 207.354 225.148 207.254 226.851 207.626" stroke="#003188" stroke-width="1.00178" stroke-miterlimit="10" stroke-linecap="round" stroke-linejoin="round"/>
    <path d="M49.9652 82.4892C48.8633 84.0348 50.5091 85.4373 51.8257 84.1636C52.7845 83.2334 52.1691 81.9597 50.9384 82.2889" stroke="#003188" stroke-width="1.00178" stroke-miterlimit="10" stroke-linecap="round" stroke-linejoin="round"/>
    <path d="M51.754 210.216C49.5501 214.953 56.4481 211.733 52.8846 210.216" stroke="#003188" stroke-width="1.00178" stroke-miterlimit="10" stroke-linecap="round" stroke-linejoin="round"/>
    <path d="M259.838 82.2746C257.634 87.0116 264.532 83.7916 260.968 82.2746" stroke="#003188" stroke-width="1.00178" stroke-miterlimit="10" stroke-linecap="round" stroke-linejoin="round"/>
    <path d="M335.057 232.141C335.858 232.069 335.071 232.141 335.057 232.141" stroke="#003188" stroke-width="1.43111" stroke-miterlimit="10" stroke-linecap="round" stroke-linejoin="round"/>
    <path d="M36.0977 176.184C36.8991 176.113 36.112 176.184 36.0977 176.184" stroke="#003188" stroke-width="1.43111" stroke-miterlimit="10" stroke-linecap="round" stroke-linejoin="round"/>
    <path d="M312.574 116.235C312.617 116.349 312.517 116.478 312.688 116.607C313.075 116.493 312.774 116.45 312.76 116.335" stroke="#003188" stroke-width="1.14489" stroke-miterlimit="10" stroke-linecap="round" stroke-linejoin="round"/>
    <path d="M152.003 67.2909C152.046 67.4054 151.946 67.5341 152.118 67.6629C152.504 67.5485 152.204 67.5055 152.189 67.391" stroke="#003188" stroke-width="1.14489" stroke-miterlimit="10" stroke-linecap="round" stroke-linejoin="round"/>
    <path d="M190.286 235.103C189.913 235.69 190.915 235.718 190.443 235.132C190.128 235.303 190.515 235.218 190.472 235.289" stroke="#003188" stroke-width="1.14489" stroke-miterlimit="10" stroke-linecap="round" stroke-linejoin="round"/>
    <path d="M198.142 146.431C192.647 142.911 185.42 146.66 185.119 153.186L184.447 167.841L197.47 161.086C200.504 159.512 202.049 156.535 202.049 153.558C202.049 150.825 200.761 148.106 198.142 146.431ZM196.511 155.691C195.438 157.365 193.205 157.866 191.531 156.778C189.856 155.705 189.355 153.472 190.429 151.798C191.502 150.124 193.735 149.623 195.409 150.696C197.083 151.769 197.584 154.002 196.511 155.691Z" fill="#FF3B0D"/>
    <path d="M256.389 100.092C256.203 98.1029 254.457 96.5573 252.424 96.915C251.466 97.0868 250.521 97.6735 250.049 98.5465C249.605 99.3909 249.805 100.45 250.636 100.965C251.408 101.437 252.482 101.18 252.983 100.421C253.512 99.5912 253.212 98.5179 252.553 97.8596C251.194 96.5143 248.274 96.1566 246.8 97.4446C246.385 97.8166 247.001 98.4177 247.401 98.0456C248.36 97.2013 249.877 97.4732 250.965 97.8739C251.566 98.1029 252.181 98.4893 252.353 99.1476C252.596 100.078 251.394 100.851 250.807 99.949C249.977 98.6753 252.167 97.6878 253.126 97.7308C254.399 97.788 255.415 98.8613 255.516 100.106C255.573 100.636 256.432 100.636 256.389 100.092Z" fill="#FF3B0D"/>
    <path d="M254.056 100.822C252.181 102.482 250.492 104.443 249.619 106.833C248.804 109.094 248.847 111.684 250.077 113.788C250.349 114.26 251.093 113.831 250.822 113.358C248.303 109.008 251.423 104.314 254.671 101.423C255.072 101.065 254.457 100.464 254.056 100.822Z" fill="#FF3B0D"/>
    <path d="M252.024 105.716C251.394 107.248 251.165 108.879 251.351 110.525C251.408 111.069 252.267 111.069 252.21 110.525C252.024 108.951 252.253 107.419 252.854 105.945C253.068 105.444 252.238 105.215 252.024 105.716Z" fill="#FF3B0D"/>
    <path d="M257.19 101.967C256.932 103.999 257.405 106.117 258.578 107.806C259.551 109.208 261.269 110.382 262.986 109.595C262.771 109.509 262.571 109.423 262.356 109.337C262.972 111.398 264.403 113.087 266.335 114.031C266.836 114.274 267.265 113.53 266.764 113.287C265.033 112.443 263.745 110.954 263.186 109.108C263.101 108.822 262.814 108.736 262.557 108.85C260.968 109.58 259.494 107.806 258.85 106.575C258.106 105.158 257.863 103.541 258.063 101.952C258.12 101.423 257.247 101.437 257.19 101.967Z" fill="#FF3B0D"/>
    <path d="M261.297 101.137C261.097 103.627 262.414 106.06 264.603 107.276C265.09 107.548 265.519 106.804 265.032 106.532C263.1 105.459 261.984 103.341 262.156 101.137C262.199 100.579 261.34 100.579 261.297 101.137Z" fill="#FF3B0D"/>
    <path d="M257.161 99.9919C260.482 95.3837 266.077 92.9222 271.644 92.5215C277.598 92.0779 283.637 93.9383 288.503 97.373C293.526 100.922 297.175 106.26 298.764 112.199C299.551 115.104 299.651 118.067 299.837 121.058C300.009 123.734 300.295 126.496 301.583 128.9C303.143 131.82 306.048 133.28 308.853 134.782C311.644 136.271 314.993 138.532 314.907 142.095C314.892 142.653 315.751 142.653 315.765 142.095C315.851 139.161 313.733 136.843 311.429 135.283C308.839 133.537 305.676 132.578 303.544 130.203C301.497 127.913 300.982 124.779 300.753 121.816C300.524 118.811 300.495 115.806 299.823 112.858C298.406 106.732 294.857 101.151 289.877 97.3014C285.082 93.6092 279 91.4625 272.932 91.5913C266.607 91.7201 260.21 94.3247 256.431 99.5483C256.102 100.006 256.847 100.436 257.161 99.9919Z" fill="#FF3B0D"/>
    <path d="M309.469 138.46C312.016 141.909 316.553 143.24 318.9 146.861C321.404 150.725 321.061 155.762 318.714 159.598C317.383 161.759 315.508 163.533 313.361 164.864C312.889 165.15 313.318 165.895 313.791 165.608C317.655 163.218 320.731 159.34 321.361 154.746C321.662 152.514 321.39 150.21 320.517 148.134C319.629 146.045 318.141 144.442 316.352 143.097C314.234 141.494 311.801 140.206 310.184 138.031C309.884 137.587 309.139 138.017 309.469 138.46Z" fill="#FF3B0D"/>
    <path d="M313.003 154.174C314.492 156.807 314.091 160.227 312.045 162.446C311.672 162.846 312.274 163.462 312.646 163.047C314.964 160.542 315.408 156.707 313.733 153.73C313.476 153.258 312.731 153.701 313.003 154.174Z" fill="#FF3B0D"/>
    <path d="M270.542 99.7486C268.024 103.384 266.664 107.777 266.664 112.199C266.664 114.503 267.079 116.736 267.723 118.926C268.424 121.315 269.297 123.72 269.426 126.238C269.684 131.161 266.864 135.526 265.648 140.149C264.474 144.6 264.46 149.494 266.364 153.744C268.152 157.752 271.702 161.029 276.038 161.988C276.582 162.102 276.811 161.286 276.267 161.158C272.417 160.299 269.269 157.537 267.48 154.059C265.333 149.909 265.29 144.943 266.449 140.492C267.566 136.156 270.027 132.163 270.285 127.612C270.557 122.918 268.024 118.682 267.609 114.074C267.165 109.18 268.496 104.214 271.287 100.178C271.587 99.72 270.843 99.2907 270.542 99.7486Z" fill="#FF3B0D"/>
    <path d="M272.088 109.437C270.871 112.214 270.628 115.362 271.544 118.267C272.431 121.101 274.578 123.348 275.394 126.21C276.238 129.172 274.836 131.848 273.276 134.296C271.716 136.743 270.084 139.118 269.555 142.038C268.954 145.301 269.498 148.678 271.115 151.569C271.387 152.056 272.131 151.612 271.859 151.14C270.385 148.492 269.841 145.372 270.356 142.381C270.857 139.491 272.46 137.158 274.02 134.725C275.379 132.593 276.696 130.231 276.51 127.612C276.31 124.779 274.506 122.503 273.247 120.07C271.601 116.893 271.387 113.172 272.832 109.881C273.061 109.38 272.317 108.936 272.088 109.437Z" fill="#FF3B0D"/>
    <path d="M267.537 145.601C267.136 148.077 267.537 150.539 268.725 152.757C268.982 153.243 269.727 152.814 269.469 152.328C268.396 150.338 268.009 148.063 268.367 145.83C268.453 145.287 267.623 145.058 267.537 145.601Z" fill="#FF3B0D"/>
    <path d="M274.878 148.063C273.891 150.238 274.692 152.657 275.694 154.675C276.667 156.664 278.084 158.467 279.773 159.913C283.508 163.075 288.517 164.335 293.311 163.462C293.855 163.361 293.626 162.531 293.082 162.632C288.689 163.433 284.009 162.288 280.546 159.44C279 158.167 277.698 156.592 276.725 154.818C275.737 153 274.692 150.524 275.608 148.478C275.837 148.006 275.107 147.562 274.878 148.063Z" fill="#FF3B0D"/>
    <path d="M287.186 154.174C288.531 157.48 291.165 160.141 294.499 161.444C296.517 162.231 298.692 162.474 300.839 162.56C302.785 162.632 305.275 162.245 306.864 163.648C307.279 164.005 307.894 163.404 307.465 163.047C306.105 161.859 304.331 161.759 302.613 161.744C300.467 161.73 298.292 161.658 296.202 161.1C292.524 160.127 289.447 157.494 288.016 153.959C287.816 153.43 286.986 153.659 287.186 154.174Z" fill="#FF3B0D"/>
    <path d="M302.885 157.408C305.175 160.714 309.583 161.687 311.715 165.079C312.016 165.551 312.746 165.122 312.46 164.649C310.299 161.229 305.905 160.27 303.63 156.979C303.315 156.535 302.571 156.964 302.885 157.408Z" fill="#FF3B0D"/>
    <path d="M294.156 116.707C292.953 125.866 300.81 132.535 305.733 139.147C307.222 141.151 308.538 143.283 309.411 145.616C309.597 146.131 310.427 145.902 310.241 145.387C307.179 137.172 299.193 132.077 296.016 123.934C295.114 121.616 294.699 119.169 295.014 116.693C295.086 116.163 294.227 116.178 294.156 116.707Z" fill="#FF3B0D"/>
    <path d="M304.488 142.639C304.76 143.698 304.774 144.757 304.545 145.83C304.431 146.374 305.261 146.603 305.375 146.059C305.647 144.843 305.633 143.626 305.318 142.41C305.175 141.881 304.345 142.11 304.488 142.639Z" fill="#FF3B0D"/>
    <path d="M292.524 116.807C292.123 118.654 292.123 120.528 292.567 122.374C292.696 122.918 293.526 122.689 293.397 122.146C292.996 120.457 292.982 118.739 293.354 117.036C293.469 116.493 292.639 116.264 292.524 116.807Z" fill="#FF3B0D"/>
    <path d="M275.88 133.437C275.408 134.725 274.921 136.013 274.449 137.301C274.263 137.816 275.093 138.045 275.279 137.53C275.751 136.242 276.238 134.954 276.71 133.666C276.896 133.151 276.066 132.922 275.88 133.437Z" fill="#FF3B0D"/>
</svg>
