<svg width="100%" height="100%" viewBox="0 0 257 264" fill="none"
    xmlns="http://www.w3.org/2000/svg">
    <path fill-rule="evenodd" clip-rule="evenodd" d="M198.779 60.8196C206.115 74.7104 211.825 88.8814 220.515 101.968C231.205 118.065 252.916 127.838 255.957 146.92C258.918 165.499 242.716 181.382 235.97 198.944C228.358 218.762 232.775 248.92 213.425 257.654C192.102 267.278 169.987 238.666 146.6 239.282C128.055 239.77 114.413 258.423 96.0067 260.745C74.078 263.511 49.2438 266.196 30.8913 253.879C12.7175 241.682 2.02348 218.455 0.464071 196.623C-1.06555 175.208 16.1914 157.486 22.5412 136.977C27.305 121.591 27.6199 105.56 33.3224 90.4966C39.565 74.0065 42.2149 52.8136 57.6377 44.2678C73.5077 35.4741 94.4371 53.9819 111.301 47.2885C134.083 38.2459 142.873 -2.92503 167.096 0.82173C189.731 4.32282 188.083 40.567 198.779 60.8196Z" fill="#F1F6FF" fill-opacity="0.35"/>
</svg>
